<?xml version="1.0" standalone="no"?>
<!DOCTYPE svg PUBLIC "-//W3C//DTD SVG 20010904//EN"
 "http://www.w3.org/TR/2001/REC-SVG-20010904/DTD/svg10.dtd">
<svg version="1.0" xmlns="http://www.w3.org/2000/svg"
 width="163.000000pt" height="163.000000pt" viewBox="0 0 163.000000 163.000000"
 preserveAspectRatio="xMidYMid meet">
<metadata>
Created by potrace 1.14, written by Peter Selinger 2001-2017
</metadata>
<g transform="translate(0.000000,163.000000) scale(0.100000,-0.100000)"
fill="#000000" stroke="none">
<path d="M720 1552 c-96 -48 -106 -183 -16 -206 16 -4 26 -10 23 -13 -4 -3 3
-13 15 -23 l22 -17 -22 -19 c-12 -10 -22 -24 -22 -31 0 -6 -9 -15 -21 -18 -16
-5 -29 1 -53 28 -24 27 -45 38 -91 48 -33 7 -64 12 -68 11 -5 -2 -6 2 -3 7 4
5 2 12 -3 15 -5 4 -17 32 -26 64 -30 101 -89 156 -144 132 -31 -13 -83 -79
-124 -158 -36 -68 -77 -258 -77 -359 0 -128 42 -280 94 -340 6 -7 31 -39 55
-71 25 -32 59 -69 77 -83 18 -13 34 -33 36 -44 2 -15 11 -20 31 -20 32 1 34
-7 6 -51 -11 -19 -18 -38 -14 -43 8 -14 69 -30 99 -27 14 2 24 -2 23 -7 -3
-16 54 -41 95 -41 21 -1 38 -4 38 -8 0 -25 186 -31 231 -7 10 5 20 4 27 -3 9
-9 19 -8 39 2 25 12 80 24 154 34 58 8 89 18 90 29 2 11 1 30 -4 82 -1 13 8
24 26 33 15 7 27 19 27 27 0 8 24 37 54 65 80 75 159 200 182 285 26 100 24
271 -5 390 -25 106 -51 176 -61 170 -3 -2 -7 1 -7 8 0 22 -45 87 -56 80 -5 -3
-7 -2 -4 4 8 13 -39 57 -52 48 -6 -3 -11 -2 -11 4 0 5 -11 6 -27 2 -50 -13
-107 -111 -115 -198 -1 -7 -4 -11 -7 -11 -3 1 -22 -6 -41 -14 -31 -15 -66 -29
-80 -33 -29 -7 -51 -18 -47 -22 9 -9 -28 -39 -43 -35 -8 2 -24 18 -35 35 -19
30 -20 34 -5 59 8 16 22 28 31 28 22 0 43 26 36 45 -4 8 -2 17 3 20 17 11 11
64 -10 85 -11 11 -20 24 -20 29 0 17 -75 47 -121 49 -26 1 -60 -6 -79 -16z"/>
<path d="M1268 348 c-29 -12 -45 -25 -41 -32 3 -6 3 -8 -1 -4 -5 4 -49 -14
-99 -40 -51 -25 -99 -47 -107 -48 -8 -1 -42 -7 -75 -13 -92 -17 -233 -15 -311
4 -65 16 -99 28 -168 61 -16 7 -32 11 -36 9 -5 -3 -10 -1 -12 4 -5 15 -129 73
-144 67 -15 -6 -56 -80 -49 -90 3 -3 2 -4 -1 -2 -12 9 -65 -64 -71 -97 -8 -49
28 -87 87 -94 53 -6 78 14 82 65 1 18 4 32 5 32 2 0 32 -12 66 -26 65 -28 192
-70 236 -80 48 -9 216 -20 268 -17 81 5 218 49 326 104 l98 50 13 -33 c7 -18
16 -41 19 -50 16 -47 111 -27 125 26 12 43 -3 81 -53 132 -23 24 -39 44 -37
44 3 0 -5 11 -18 25 -28 30 -41 31 -102 3z"/>
</g>
</svg>
